<?xml version="1.0" encoding="UTF-8" standalone="no"?>
<!DOCTYPE svg PUBLIC "-//W3C//DTD SVG 1.1//EN"
 "http://www.w3.org/Graphics/SVG/1.1/DTD/svg11.dtd">
<!-- Generated by graphviz version 9.0.0 (0)
 -->
<!-- Title: model Pages: 1 -->
<svg width="356pt" height="499pt"
 viewBox="0.00 0.00 356.00 499.00" xmlns="http://www.w3.org/2000/svg" xmlns:xlink="http://www.w3.org/1999/xlink">
<g id="graph0" class="graph" transform="scale(1 1) rotate(0) translate(4 495)">
<title>model</title>
<polygon fill="white" stroke="none" points="-4,4 -4,-495 352,-495 352,4 -4,4"/>
<!-- 0 -->
<g id="node1" class="node">
<title>0</title>
<polygon fill="lightyellow" stroke="none" points="104,-491 0,-491 0,-458.5 104,-458.5 104,-491"/>
<polygon fill="none" stroke="black" points="0,-458.5 0,-491 61,-491 61,-458.5 0,-458.5"/>
<text text-anchor="start" x="5" y="-476.5" font-family="Linux libertine" font-size="10.00">input&#45;tensor</text>
<text text-anchor="start" x="14.38" y="-465.25" font-family="Linux libertine" font-size="10.00">depth:0</text>
<polygon fill="none" stroke="black" points="61,-458.5 61,-491 104,-491 104,-458.5 61,-458.5"/>
<text text-anchor="start" x="66" y="-470.88" font-family="Linux libertine" font-size="10.00">(1, 512)</text>
</g>
<!-- 3 -->
<g id="node4" class="node">
<title>3</title>
<polygon fill="#c1ffc1" stroke="none" points="275.5,-422.5 72.5,-422.5 72.5,-380.5 275.5,-380.5 275.5,-422.5"/>
<polygon fill="none" stroke="black" points="72.5,-380.5 72.5,-422.5 126.5,-422.5 126.5,-380.5 72.5,-380.5"/>
<text text-anchor="start" x="77.38" y="-403.25" font-family="Linux libertine" font-size="10.00">BertModel</text>
<text text-anchor="start" x="83.38" y="-392" font-family="Linux libertine" font-size="10.00">depth:1</text>
<polygon fill="none" stroke="black" points="126.5,-401.5 126.5,-422.5 169.5,-422.5 169.5,-401.5 126.5,-401.5"/>
<text text-anchor="start" x="136" y="-408" font-family="Linux libertine" font-size="10.00">input:</text>
<polygon fill="none" stroke="black" points="169.5,-401.5 169.5,-422.5 275.5,-422.5 275.5,-401.5 169.5,-401.5"/>
<text text-anchor="start" x="196.25" y="-408" font-family="Linux libertine" font-size="10.00">3 x (1, 512) </text>
<polygon fill="none" stroke="black" points="126.5,-380.5 126.5,-401.5 169.5,-401.5 169.5,-380.5 126.5,-380.5"/>
<text text-anchor="start" x="131.5" y="-387" font-family="Linux libertine" font-size="10.00">output: </text>
<polygon fill="none" stroke="black" points="169.5,-380.5 169.5,-401.5 275.5,-401.5 275.5,-380.5 169.5,-380.5"/>
<text text-anchor="start" x="174.12" y="-387" font-family="Linux libertine" font-size="10.00">(1, 512, 768), (1, 768) </text>
</g>
<!-- 0&#45;&gt;3 -->
<g id="edge1" class="edge">
<title>0&#45;&gt;3</title>
<path fill="none" stroke="black" d="M77.87,-458.64C93.1,-449.75 112.75,-438.27 130.32,-428.01"/>
<polygon fill="black" stroke="black" points="131.65,-431.29 138.52,-423.22 128.12,-425.24 131.65,-431.29"/>
</g>
<!-- 1 -->
<g id="node2" class="node">
<title>1</title>
<polygon fill="lightyellow" stroke="none" points="226,-491 122,-491 122,-458.5 226,-458.5 226,-491"/>
<polygon fill="none" stroke="black" points="122,-458.5 122,-491 183,-491 183,-458.5 122,-458.5"/>
<text text-anchor="start" x="127" y="-476.5" font-family="Linux libertine" font-size="10.00">input&#45;tensor</text>
<text text-anchor="start" x="136.38" y="-465.25" font-family="Linux libertine" font-size="10.00">depth:0</text>
<polygon fill="none" stroke="black" points="183,-458.5 183,-491 226,-491 226,-458.5 183,-458.5"/>
<text text-anchor="start" x="188" y="-470.88" font-family="Linux libertine" font-size="10.00">(1, 512)</text>
</g>
<!-- 1&#45;&gt;3 -->
<g id="edge2" class="edge">
<title>1&#45;&gt;3</title>
<path fill="none" stroke="black" d="M174,-458.64C174,-451.39 174,-442.43 174,-433.81"/>
<polygon fill="black" stroke="black" points="177.5,-433.97 174,-423.97 170.5,-433.97 177.5,-433.97"/>
</g>
<!-- 2 -->
<g id="node3" class="node">
<title>2</title>
<polygon fill="lightyellow" stroke="none" points="348,-491 244,-491 244,-458.5 348,-458.5 348,-491"/>
<polygon fill="none" stroke="black" points="244,-458.5 244,-491 305,-491 305,-458.5 244,-458.5"/>
<text text-anchor="start" x="249" y="-476.5" font-family="Linux libertine" font-size="10.00">input&#45;tensor</text>
<text text-anchor="start" x="258.38" y="-465.25" font-family="Linux libertine" font-size="10.00">depth:0</text>
<polygon fill="none" stroke="black" points="305,-458.5 305,-491 348,-491 348,-458.5 305,-458.5"/>
<text text-anchor="start" x="310" y="-470.88" font-family="Linux libertine" font-size="10.00">(1, 512)</text>
</g>
<!-- 2&#45;&gt;3 -->
<g id="edge3" class="edge">
<title>2&#45;&gt;3</title>
<path fill="none" stroke="black" d="M270.13,-458.64C254.9,-449.75 235.25,-438.27 217.68,-428.01"/>
<polygon fill="black" stroke="black" points="219.88,-425.24 209.48,-423.22 216.35,-431.29 219.88,-425.24"/>
</g>
<!-- 4 -->
<g id="node5" class="node">
<title>4</title>
<polygon fill="#c1ffc1" stroke="none" points="239.5,-344.5 108.5,-344.5 108.5,-302.5 239.5,-302.5 239.5,-344.5"/>
<polygon fill="none" stroke="black" points="108.5,-302.5 108.5,-344.5 150.5,-344.5 150.5,-302.5 108.5,-302.5"/>
<text text-anchor="start" x="116.38" y="-325.25" font-family="Linux libertine" font-size="10.00">Linear</text>
<text text-anchor="start" x="113.38" y="-314" font-family="Linux libertine" font-size="10.00">depth:1</text>
<polygon fill="none" stroke="black" points="150.5,-323.5 150.5,-344.5 193.5,-344.5 193.5,-323.5 150.5,-323.5"/>
<text text-anchor="start" x="160" y="-330" font-family="Linux libertine" font-size="10.00">input:</text>
<polygon fill="none" stroke="black" points="193.5,-323.5 193.5,-344.5 239.5,-344.5 239.5,-323.5 193.5,-323.5"/>
<text text-anchor="start" x="198.5" y="-330" font-family="Linux libertine" font-size="10.00">(1, 768) </text>
<polygon fill="none" stroke="black" points="150.5,-302.5 150.5,-323.5 193.5,-323.5 193.5,-302.5 150.5,-302.5"/>
<text text-anchor="start" x="155.5" y="-309" font-family="Linux libertine" font-size="10.00">output: </text>
<polygon fill="none" stroke="black" points="193.5,-302.5 193.5,-323.5 239.5,-323.5 239.5,-302.5 193.5,-302.5"/>
<text text-anchor="start" x="198.5" y="-309" font-family="Linux libertine" font-size="10.00">(1, 201) </text>
</g>
<!-- 3&#45;&gt;4 -->
<g id="edge4" class="edge">
<title>3&#45;&gt;4</title>
<path fill="none" stroke="black" d="M174,-380.53C174,-372.94 174,-364.1 174,-355.71"/>
<polygon fill="black" stroke="black" points="177.5,-355.85 174,-345.85 170.5,-355.85 177.5,-355.85"/>
</g>
<!-- 5 -->
<g id="node6" class="node">
<title>5</title>
<polygon fill="#c1ffc1" stroke="none" points="239.5,-266.5 108.5,-266.5 108.5,-224.5 239.5,-224.5 239.5,-266.5"/>
<polygon fill="none" stroke="black" points="108.5,-224.5 108.5,-266.5 150.5,-266.5 150.5,-224.5 108.5,-224.5"/>
<text text-anchor="start" x="116.75" y="-247.25" font-family="Linux libertine" font-size="10.00">ReLU</text>
<text text-anchor="start" x="113.38" y="-236" font-family="Linux libertine" font-size="10.00">depth:1</text>
<polygon fill="none" stroke="black" points="150.5,-245.5 150.5,-266.5 193.5,-266.5 193.5,-245.5 150.5,-245.5"/>
<text text-anchor="start" x="160" y="-252" font-family="Linux libertine" font-size="10.00">input:</text>
<polygon fill="none" stroke="black" points="193.5,-245.5 193.5,-266.5 239.5,-266.5 239.5,-245.5 193.5,-245.5"/>
<text text-anchor="start" x="198.5" y="-252" font-family="Linux libertine" font-size="10.00">(1, 201) </text>
<polygon fill="none" stroke="black" points="150.5,-224.5 150.5,-245.5 193.5,-245.5 193.5,-224.5 150.5,-224.5"/>
<text text-anchor="start" x="155.5" y="-231" font-family="Linux libertine" font-size="10.00">output: </text>
<polygon fill="none" stroke="black" points="193.5,-224.5 193.5,-245.5 239.5,-245.5 239.5,-224.5 193.5,-224.5"/>
<text text-anchor="start" x="198.5" y="-231" font-family="Linux libertine" font-size="10.00">(1, 201) </text>
</g>
<!-- 4&#45;&gt;5 -->
<g id="edge5" class="edge">
<title>4&#45;&gt;5</title>
<path fill="none" stroke="black" d="M174,-302.53C174,-294.94 174,-286.1 174,-277.71"/>
<polygon fill="black" stroke="black" points="177.5,-277.85 174,-267.85 170.5,-277.85 177.5,-277.85"/>
</g>
<!-- 6 -->
<g id="node7" class="node">
<title>6</title>
<polygon fill="#c1ffc1" stroke="none" points="240.5,-188.5 107.5,-188.5 107.5,-146.5 240.5,-146.5 240.5,-188.5"/>
<polygon fill="none" stroke="black" points="107.5,-146.5 107.5,-188.5 151.5,-188.5 151.5,-146.5 107.5,-146.5"/>
<text text-anchor="start" x="112.25" y="-169.25" font-family="Linux libertine" font-size="10.00">Dropout</text>
<text text-anchor="start" x="113.38" y="-158" font-family="Linux libertine" font-size="10.00">depth:1</text>
<polygon fill="none" stroke="black" points="151.5,-167.5 151.5,-188.5 194.5,-188.5 194.5,-167.5 151.5,-167.5"/>
<text text-anchor="start" x="161" y="-174" font-family="Linux libertine" font-size="10.00">input:</text>
<polygon fill="none" stroke="black" points="194.5,-167.5 194.5,-188.5 240.5,-188.5 240.5,-167.5 194.5,-167.5"/>
<text text-anchor="start" x="199.5" y="-174" font-family="Linux libertine" font-size="10.00">(1, 201) </text>
<polygon fill="none" stroke="black" points="151.5,-146.5 151.5,-167.5 194.5,-167.5 194.5,-146.5 151.5,-146.5"/>
<text text-anchor="start" x="156.5" y="-153" font-family="Linux libertine" font-size="10.00">output: </text>
<polygon fill="none" stroke="black" points="194.5,-146.5 194.5,-167.5 240.5,-167.5 240.5,-146.5 194.5,-146.5"/>
<text text-anchor="start" x="199.5" y="-153" font-family="Linux libertine" font-size="10.00">(1, 201) </text>
</g>
<!-- 5&#45;&gt;6 -->
<g id="edge6" class="edge">
<title>5&#45;&gt;6</title>
<path fill="none" stroke="black" d="M174,-224.53C174,-216.94 174,-208.1 174,-199.71"/>
<polygon fill="black" stroke="black" points="177.5,-199.85 174,-189.85 170.5,-199.85 177.5,-199.85"/>
</g>
<!-- 7 -->
<g id="node8" class="node">
<title>7</title>
<polygon fill="#c1ffc1" stroke="none" points="239.5,-110.5 108.5,-110.5 108.5,-68.5 239.5,-68.5 239.5,-110.5"/>
<polygon fill="none" stroke="black" points="108.5,-68.5 108.5,-110.5 150.5,-110.5 150.5,-68.5 108.5,-68.5"/>
<text text-anchor="start" x="116.38" y="-91.25" font-family="Linux libertine" font-size="10.00">Linear</text>
<text text-anchor="start" x="113.38" y="-80" font-family="Linux libertine" font-size="10.00">depth:1</text>
<polygon fill="none" stroke="black" points="150.5,-89.5 150.5,-110.5 193.5,-110.5 193.5,-89.5 150.5,-89.5"/>
<text text-anchor="start" x="160" y="-96" font-family="Linux libertine" font-size="10.00">input:</text>
<polygon fill="none" stroke="black" points="193.5,-89.5 193.5,-110.5 239.5,-110.5 239.5,-89.5 193.5,-89.5"/>
<text text-anchor="start" x="198.5" y="-96" font-family="Linux libertine" font-size="10.00">(1, 201) </text>
<polygon fill="none" stroke="black" points="150.5,-68.5 150.5,-89.5 193.5,-89.5 193.5,-68.5 150.5,-68.5"/>
<text text-anchor="start" x="155.5" y="-75" font-family="Linux libertine" font-size="10.00">output: </text>
<polygon fill="none" stroke="black" points="193.5,-68.5 193.5,-89.5 239.5,-89.5 239.5,-68.5 193.5,-68.5"/>
<text text-anchor="start" x="203.75" y="-75" font-family="Linux libertine" font-size="10.00">(1, 5) </text>
</g>
<!-- 6&#45;&gt;7 -->
<g id="edge7" class="edge">
<title>6&#45;&gt;7</title>
<path fill="none" stroke="black" d="M174,-146.53C174,-138.94 174,-130.1 174,-121.71"/>
<polygon fill="black" stroke="black" points="177.5,-121.85 174,-111.85 170.5,-121.85 177.5,-121.85"/>
</g>
<!-- 8 -->
<g id="node9" class="node">
<title>8</title>
<polygon fill="lightyellow" stroke="none" points="223.75,-32.5 124.25,-32.5 124.25,0 223.75,0 223.75,-32.5"/>
<polygon fill="none" stroke="black" points="124.25,0 124.25,-32.5 191.25,-32.5 191.25,0 124.25,0"/>
<text text-anchor="start" x="129.25" y="-18" font-family="Linux libertine" font-size="10.00">output&#45;tensor</text>
<text text-anchor="start" x="141.62" y="-6.75" font-family="Linux libertine" font-size="10.00">depth:0</text>
<polygon fill="none" stroke="black" points="191.25,0 191.25,-32.5 223.75,-32.5 223.75,0 191.25,0"/>
<text text-anchor="start" x="196.25" y="-12.38" font-family="Linux libertine" font-size="10.00">(1, 5)</text>
</g>
<!-- 7&#45;&gt;8 -->
<g id="edge8" class="edge">
<title>7&#45;&gt;8</title>
<path fill="none" stroke="black" d="M174,-68.65C174,-60.91 174,-51.91 174,-43.63"/>
<polygon fill="black" stroke="black" points="177.5,-43.76 174,-33.76 170.5,-43.76 177.5,-43.76"/>
</g>
</g>
</svg>
